<?xml version="1.0" standalone="no"?>
<!DOCTYPE svg PUBLIC "-//W3C//DTD SVG 20010904//EN"
 "http://www.w3.org/TR/2001/REC-SVG-20010904/DTD/svg10.dtd">
<svg version="1.0" xmlns="http://www.w3.org/2000/svg"
 width="1038.000000pt" height="1038.000000pt" viewBox="0 0 1038.000000 1038.000000"
 preserveAspectRatio="xMidYMid meet">
<metadata>
Created by potrace 1.11, written by Peter Selinger 2001-2013
</metadata>
<g transform="translate(0.000000,1038.000000) scale(0.100000,-0.100000)"
fill="#000000" stroke="none">
<path d="M8508 9015 c-2 -1 -25 -5 -53 -9 -198 -23 -441 -100 -624 -198 -196
-104 -337 -218 -475 -383 -32 -38 -62 -74 -66 -78 -4 -5 -45 3 -91 17 -46 14
-95 27 -109 30 -14 2 -32 7 -40 10 -17 6 -25 8 -170 36 -148 29 -229 42 -345
55 -33 4 -70 8 -81 10 -155 24 -626 23 -844 0 -19 -2 -64 -7 -100 -10 -36 -3
-72 -8 -80 -10 -8 -2 -35 -7 -60 -10 -25 -3 -52 -8 -60 -10 -8 -2 -35 -7 -60
-10 -25 -4 -65 -11 -90 -17 -25 -5 -55 -12 -68 -14 -136 -26 -502 -138 -617
-189 -16 -8 -66 -28 -110 -46 -44 -18 -152 -69 -240 -113 -201 -102 -359 -199
-544 -333 -30 -22 -172 -134 -187 -148 -6 -5 -44 -39 -84 -75 -305 -270 -568
-610 -755 -975 -142 -277 -257 -633 -291 -899 -3 -22 -7 -43 -10 -48 -3 -4
-28 4 -55 18 -95 48 -215 91 -324 117 -112 27 -150 35 -172 36 -18 1 -48 52
-143 241 -175 346 -299 520 -572 796 l-120 122 121 145 c109 131 136 171 114
165 -5 -1 -37 3 -73 10 -36 7 -78 14 -95 17 -24 5 -375 75 -450 91 -220 45
-368 76 -402 84 -73 17 -74 17 -52 -42 11 -29 24 -62 29 -73 5 -11 68 -173
140 -360 72 -187 135 -349 140 -360 4 -11 25 -64 46 -118 21 -53 40 -94 44
-90 3 5 38 46 76 93 38 47 74 90 79 96 6 6 33 39 60 73 28 33 53 61 56 61 6 0
81 -75 140 -140 29 -33 190 -244 216 -286 7 -10 39 -57 70 -104 62 -91 97
-153 179 -320 56 -113 56 -116 -4 -126 -49 -9 -201 -63 -260 -93 -155 -78
-273 -219 -356 -423 -8 -20 -17 -52 -20 -70 -3 -18 -8 -44 -11 -58 -9 -43 -6
-202 5 -260 6 -30 14 -66 16 -80 10 -49 66 -170 106 -227 104 -150 240 -230
403 -238 175 -9 326 63 428 203 56 76 122 220 142 308 31 140 36 181 36 278
-1 107 -4 147 -15 211 -3 17 -8 47 -11 69 -4 21 -8 47 -10 57 -2 11 -3 19 -1
19 1 0 34 -11 72 -24 147 -51 250 -102 341 -169 l61 -46 1 -68 c2 -131 12
-243 33 -383 16 -108 16 -113 22 -135 2 -11 14 -60 26 -110 38 -163 112 -384
173 -517 74 -159 178 -367 235 -468 57 -102 206 -337 221 -350 3 -3 26 -32 51
-65 52 -70 62 -82 158 -191 40 -45 76 -84 80 -86 4 -2 25 -25 47 -53 22 -27
43 -52 46 -55 19 -15 132 -199 171 -281 66 -133 128 -317 152 -454 3 -16 8
-39 10 -50 11 -57 18 -132 21 -242 5 -143 24 -202 86 -258 80 -72 35 -68 824
-69 707 0 710 0 758 21 26 12 63 39 83 60 60 64 67 90 70 268 2 88 3 164 3
168 1 5 25 6 54 3 161 -18 225 -21 457 -21 140 0 294 3 341 6 l86 6 0 -136 c1
-203 11 -239 84 -306 80 -72 37 -68 809 -70 408 0 712 3 735 9 70 16 128 64
166 137 22 42 23 56 26 268 1 153 7 251 18 310 49 261 168 476 370 673 432
420 481 475 667 748 139 204 298 525 358 720 7 25 16 48 19 52 3 4 67 8 142 9
164 1 211 9 292 48 121 59 209 170 236 299 7 35 11 235 11 585 0 569 -2 592
-51 689 -29 56 -112 142 -167 173 -84 47 -144 59 -316 60 l-159 1 -52 129
c-191 482 -485 899 -885 1254 -41 36 -85 75 -97 86 -29 26 -63 177 -67 294 -5
170 45 371 135 546 29 55 66 126 82 158 53 101 38 217 -39 305 -52 59 -111 89
-187 96 -31 2 -57 3 -59 1z m-7042 -3603 c3 -15 8 -35 11 -45 20 -73 24 -315
7 -419 -42 -264 -193 -403 -357 -330 -106 47 -174 161 -190 319 -6 59 10 138
40 197 61 121 236 257 393 307 63 19 87 13 96 -29z"/>
</g>
</svg>
